<svg width="320" height="320" viewBox="0 0 320 320" fill="none" xmlns="http://www.w3.org/2000/svg"><circle cx="160" cy="160" r="160" fill="#F7B718"/><circle cx="160" cy="160" r="155" fill="#1E2329"/><circle cx="160" cy="160" r="145" fill="#F7B718"/><path d="M204.871 148.604a28.88 28.88 0 0 0 20.571-8.522l27.997-27.978c2.214-2.215 2.417-5.818.309-8.141a5.82 5.82 0 0 0-8.425-.204l-24.953 24.935a4.465 4.465 0 0 1-6.315 0c-1.742-1.738-1.647-4.676.091-6.414l24.844-24.843a5.8 5.8 0 0 0 1.702-4.254 5.8 5.8 0 0 0-1.906-4.167 5.68 5.68 0 0 0-3.847-1.473 6.08 6.08 0 0 0-4.294 1.782l-24.822 24.818a4.465 4.465 0 0 1-6.315 0c-1.738-1.738-1.647-4.675.091-6.413l24.844-24.837a5.84 5.84 0 0 0 1.702-4.254 5.8 5.8 0 0 0-1.906-4.166A5.68 5.68 0 0 0 220.392 73a6.08 6.08 0 0 0-4.294 1.782L188.12 102.76a28.9 28.9 0 0 0-8.522 20.575v2.992a5.83 5.83 0 0 1-1.705 4.12l-12.948 12.951a1.45 1.45 0 0 1-1.029.426 1.46 1.46 0 0 1-1.029-.426L99.885 80.392a5.817 5.817 0 0 0-8.21-.022c-5.508 5.457-8.45 13.162-8.45 22.277-.036 15.052 7.876 32.359 20.649 45.114l31.068 31.068a23.56 23.56 0 0 0 16.638 6.883 23.3 23.3 0 0 0 5.894-.757 5.79 5.79 0 0 1 5.417 1.353l4.141 3.825a5.86 5.86 0 0 1 1.673 4.083v2.014a17.36 17.36 0 0 0 5.006 12.235l32.741 33.293.033.037a19.38 19.38 0 0 0 27.402-.002 19.38 19.38 0 0 0-.002-27.402l-49.077-49.077a1.45 1.45 0 0 1-.316-1.585q.112-.268.316-.472l12.947-12.948a5.84 5.84 0 0 1 4.116-1.705zm-58.997 48.748a35.4 35.4 0 0 1-24.855-10.271l-5.039-5.04a2.907 2.907 0 0 0-4.109 0l-30.905 30.745c-5.508 5.508-7.475 13.616-4.748 21.557q.23.672.542 1.309c3.668 7.512 10.787 11.875 18.575 11.875a20.26 20.26 0 0 0 14.413-5.978l41.216-41.412a1.7 1.7 0 0 0 .48-1.353v-.094a1.68 1.68 0 0 0-.605-1.176 1.7 1.7 0 0 0-1.267-.377 35 35 0 0 1-3.698.215" fill="#1E2329"/></svg>